<svg width="24" height="24" viewBox="0 0 24 24" fill="none" xmlns="http://www.w3.org/2000/svg">
<mask id="mask0_73_1253" style="mask-type:luminance" maskUnits="userSpaceOnUse" x="0" y="0" width="24" height="24">
<path d="M24 0.5H0V23.5H24V0.5Z" fill="white"/>
</mask>
<g mask="url(#mask0_73_1253)">
<path d="M16.2585 8.12848V13.5748L16.0406 13.7894L15.0424 14.7732C15.0399 14.7758 15.0379 14.7788 15.0363 14.7821L7.40989 22.2942C6.84776 22.8454 6.12795 23.214 5.3471 23.3504C4.56628 23.4868 3.76177 23.3846 3.04161 23.0574C3.03498 23.0557 3.02878 23.0526 3.02344 23.0484C3.02187 23.0467 3.01972 23.0457 3.01739 23.0455C2.61422 22.86 2.24756 22.6057 1.9344 22.2942C1.8146 22.1769 1.7034 22.0514 1.60163 21.9186C1.59918 21.916 1.59714 21.9129 1.59558 21.9097C1.58787 21.9023 1.58079 21.8943 1.5744 21.8858C1.01624 21.1507 0.745425 20.242 0.811534 19.3261C0.877642 18.4103 1.27625 17.5485 1.9344 16.8986L8.74095 10.1943C8.74253 10.1911 8.74458 10.1881 8.74703 10.1854L9.67878 9.26723L10.8344 8.12848H16.2585Z" fill="url(#paint0_linear_73_1253)"/>
<path d="M23.9999 4.33656V19.6828C24.0001 20.1996 23.8938 20.711 23.6874 21.1861C23.481 21.6611 23.1788 22.09 22.7992 22.4465C22.4196 22.803 21.9704 23.0798 21.4789 23.2602C20.9875 23.4405 20.464 23.5206 19.9402 23.4955C19.0339 23.4366 18.1762 23.0704 17.5128 22.4591C16.8494 21.8478 16.4212 21.029 16.3009 20.1419L16.3018 20.1405L16.3022 20.1389L16.3018 20.1373L16.3009 20.1359H16.2979V20.13C16.2965 20.118 16.2945 20.106 16.2918 20.0942C16.2701 19.9211 16.259 19.7469 16.2586 19.5725V8.12841H3.98251C3.08196 8.12773 2.20718 7.83201 1.49585 7.28777L1.49282 7.28478C1.4898 7.28478 1.48677 7.2818 1.48375 7.27882C1.48072 7.27584 1.47468 7.26988 1.46863 7.26392C1.46223 7.25724 1.45513 7.25125 1.44745 7.24603C1.02225 6.91618 0.673531 6.50057 0.424661 6.02704C0.175789 5.55353 0.0325206 5.03305 0.00445573 4.50052C-0.0206848 3.98442 0.0607567 3.46866 0.243851 2.98448C0.426945 2.50031 0.707881 2.0578 1.06964 1.68376C1.43139 1.30973 1.86643 1.01195 2.34841 0.808472C2.83039 0.604995 3.34926 0.500051 3.87361 0.5H20.1065C20.6179 0.499883 21.1242 0.599042 21.5966 0.791806C22.069 0.98457 22.4983 1.26716 22.8599 1.62344C23.2214 1.97972 23.5082 2.40271 23.7038 2.86824C23.8994 3.33377 24 3.83271 23.9999 4.33656Z" fill="url(#paint1_linear_73_1253)"/>
<g style="mix-blend-mode:screen" opacity="0.3">
<g style="mix-blend-mode:screen" opacity="0.3">
<path d="M23.0923 4.33654V4.45877H0.912185V4.42001C0.912185 4.40153 0.912185 4.3744 0.912185 4.34042C0.907656 3.95471 0.980929 3.57195 1.12775 3.21436C1.27458 2.85677 1.49203 2.53149 1.76748 2.2574C2.04292 1.98331 2.37089 1.76587 2.73231 1.6177C3.09374 1.46954 3.48144 1.39359 3.8729 1.39429H20.1058C20.8976 1.39476 21.6569 1.70489 22.2168 2.25655C22.7768 2.80821 23.0916 3.55629 23.0923 4.33654Z" fill="white"/>
</g>
</g>
<g style="mix-blend-mode:screen" opacity="0.2">
<path d="M13.6054 10.7427L2.55156 21.6354C2.55156 21.6354 2.54249 21.6264 2.52433 21.6055C2.51076 21.5952 2.49857 21.5832 2.48803 21.5698C1.97338 21.0143 1.69541 20.2849 1.71174 19.5328C1.72807 18.7808 2.03746 18.0638 2.57576 17.5305L9.43682 10.7725C9.45497 10.7517 9.46401 10.7427 9.46401 10.7427H13.6054Z" fill="white"/>
</g>
<g style="mix-blend-mode:multiply" opacity="0.2">
<path d="M16.259 8.12848V13.5748L16.0412 13.7894L15.0429 14.7732V9.26723H9.67932L10.8349 8.12848H16.259Z" fill="black"/>
</g>
<g style="mix-blend-mode:screen" opacity="0.6">
<path d="M20.1067 1.39429C20.1067 1.39429 19.7769 1.40622 19.2022 1.4241C18.6274 1.43603 17.8045 1.46584 16.8183 1.47776C15.8321 1.48969 14.6826 1.51949 13.4514 1.52248C12.2201 1.52546 10.9042 1.53738 9.58827 1.54334C8.27234 1.53738 6.95939 1.52844 5.72513 1.52248C5.108 1.51651 4.51205 1.51055 3.94937 1.50161C3.43252 1.4802 2.91939 1.59657 2.46404 1.83846C2.07922 2.04765 1.74405 2.33525 1.48087 2.68209C1.2784 2.95392 1.12583 3.25862 1.03011 3.58235C0.970148 3.79257 0.932636 4.00837 0.918182 4.22625C0.91546 4.27096 0.913947 4.30882 0.91304 4.34042C0.908511 3.95471 0.981792 3.57195 1.12862 3.21436C1.27544 2.85677 1.49288 2.53149 1.76833 2.2574C2.04378 1.98331 2.37174 1.76587 2.73317 1.6177C3.09458 1.46954 3.48229 1.39359 3.87374 1.39429H20.1067Z" fill="white"/>
</g>
<g style="mix-blend-mode:screen" opacity="0.6">
<path d="M9.43682 10.7725C9.38236 10.8321 9.2462 10.9782 9.04957 11.1928C8.78033 11.476 8.40521 11.8874 7.93934 12.3644C7.47346 12.8413 6.93499 13.4107 6.34509 13.998C5.75518 14.5912 5.12595 15.2202 4.4937 15.8492C4.17605 16.1592 3.85539 16.4692 3.54077 16.7763C3.22616 17.0833 2.91156 17.3814 2.62114 17.6736C2.3527 17.9488 2.14105 18.2727 1.99796 18.6275C1.86973 18.9506 1.80208 19.294 1.7983 19.641C1.79596 19.9356 1.83775 20.2289 1.92233 20.5115C1.98919 20.7314 2.0805 20.9433 2.19459 21.1435C2.27146 21.2715 2.35739 21.394 2.45173 21.5101C2.47767 21.5406 2.5019 21.5724 2.52433 21.6055C2.51076 21.5951 2.49857 21.5831 2.48803 21.5697C1.97338 21.0142 1.69541 20.2848 1.71174 19.5328C1.72807 18.7808 2.03746 18.0638 2.57576 17.5305L9.43682 10.7725Z" fill="white"/>
</g>
<g style="mix-blend-mode:screen" opacity="0.6">
<path d="M8.74095 10.1942C8.67138 10.2777 8.08755 10.9842 7.18908 11.962C6.71414 12.4866 6.14843 13.0888 5.53433 13.7237C5.22274 14.0397 4.91115 14.3736 4.58141 14.6985C4.25167 15.0235 3.91887 15.3603 3.58308 15.6942C3.24729 16.0221 2.90849 16.35 2.5727 16.6749C2.40934 16.8359 2.24296 16.9939 2.08262 17.1489C1.93333 17.2954 1.79672 17.454 1.67423 17.6229C1.44144 17.9461 1.26366 18.3046 1.14785 18.6841C1.04496 19.0292 0.988015 19.3859 0.978446 19.7454C0.977182 20.053 1.00964 20.3598 1.07525 20.6605C1.13274 20.8955 1.2086 21.1257 1.30214 21.3492C1.34449 21.4416 1.38381 21.5221 1.41709 21.5936C1.45037 21.6652 1.4897 21.7248 1.51692 21.7725C1.55625 21.844 1.5865 21.8917 1.59558 21.9096C1.58787 21.9022 1.58079 21.8943 1.5744 21.8857C1.01624 21.1506 0.745425 20.2419 0.811534 19.326C0.877642 18.4102 1.27625 17.5485 1.9344 16.8985L8.74095 10.1942Z" fill="white"/>
</g>
<g style="mix-blend-mode:multiply" opacity="0.3">
<path d="M15.0424 14.773C15.04 14.7757 15.0379 14.7787 15.0364 14.782L7.40997 22.2941C6.8478 22.8453 6.128 23.2138 5.34718 23.3502C4.56633 23.4866 3.76182 23.3844 3.04165 23.0572C3.03324 23.054 3.02512 23.05 3.01746 23.0453C3.22564 23.1207 3.44028 23.1776 3.65878 23.2152C4.22095 23.3203 4.79929 23.3071 5.35589 23.1765C5.71755 23.0874 6.06477 22.949 6.38747 22.7651C6.56181 22.6666 6.72683 22.5528 6.88056 22.4253C6.96224 22.3597 7.0288 22.2941 7.11048 22.2226L7.22846 22.1063L7.34039 21.99C7.65803 21.6681 7.97869 21.3283 8.31448 20.9944C8.65028 20.6605 8.99212 20.3177 9.33396 19.9779C9.6758 19.638 10.0267 19.3041 10.3655 18.9733C10.7043 18.6424 11.0492 18.3264 11.3759 18.0134C12.0354 17.3963 12.6616 16.8239 13.2031 16.344C14.2834 15.3782 15.0424 14.773 15.0424 14.773Z" fill="black"/>
</g>
<g style="mix-blend-mode:multiply" opacity="0.3">
<path d="M16.3011 20.1363H16.298V20.13C16.2997 20.1317 16.3008 20.1339 16.3011 20.1363Z" fill="black"/>
</g>
<g style="mix-blend-mode:multiply" opacity="0.3">
<path d="M23.9999 4.79559V19.6828C24.0001 20.1996 23.8938 20.711 23.6874 21.186C23.481 21.6611 23.1788 22.0899 22.7992 22.4464C22.4196 22.803 21.9704 23.0798 21.4789 23.2601C20.9875 23.4405 20.464 23.5205 19.9402 23.4955C19.0339 23.4366 18.1762 23.0704 17.5128 22.459C16.8494 21.8477 16.4212 21.029 16.3009 20.1418C16.313 20.1866 16.3342 20.267 16.3614 20.3833C16.4342 20.6506 16.5335 20.9102 16.6579 21.1584C16.8472 21.5423 17.1008 21.892 17.4081 22.1928C17.7966 22.5803 18.2663 22.8795 18.7845 23.0692C19.0744 23.1759 19.3777 23.2431 19.686 23.2689L19.9402 23.2868C20.0188 23.2868 20.0975 23.2838 20.1791 23.2808C20.3466 23.2781 20.5135 23.2622 20.6783 23.2332C21.3784 23.1097 22.0275 22.7898 22.5478 22.312C22.8196 22.063 23.0512 21.7745 23.2345 21.4565C23.4154 21.1286 23.5488 20.7774 23.6308 20.4131C23.667 20.2272 23.6893 20.0389 23.6974 19.8497L23.7034 19.6977C23.7065 19.6768 23.7034 19.6023 23.7034 19.5576V19.2505C23.7004 18.8391 23.7004 18.4248 23.6974 18.0134C23.7034 17.1847 23.7065 16.3589 23.7095 15.5481C23.7186 14.7343 23.7276 13.9324 23.7367 13.1603C23.7579 11.6102 23.7881 10.1644 23.8275 8.92429C23.8607 7.68717 23.9152 6.65276 23.9424 5.93136C23.9757 5.20697 23.9999 4.79559 23.9999 4.79559Z" fill="black"/>
</g>
<g style="mix-blend-mode:screen" opacity="0.6">
<path d="M16.6912 0.5C16.6912 0.5 16.3402 0.52683 15.7292 0.55664C15.1181 0.58645 14.2408 0.637129 13.1911 0.66992C12.1444 0.708673 10.9192 0.741463 9.60626 0.762331C8.94981 0.768293 8.27217 0.786179 7.58546 0.786179C6.89573 0.792141 6.19692 0.79512 5.49811 0.798101C5.1472 0.79512 4.79628 0.795123 4.44839 0.792142L3.92806 0.789158C3.75865 0.795121 3.60437 0.798104 3.44404 0.81599C2.82049 0.884124 2.22543 1.11005 1.71669 1.47181C1.23545 1.81275 0.844315 2.26257 0.576203 2.78346C0.511335 2.90646 0.455726 3.03399 0.409826 3.16502C0.360836 3.28939 0.320411 3.41687 0.28882 3.54659C0.273694 3.61218 0.255543 3.67478 0.240417 3.73738L0.213191 3.92518C0.204116 3.98778 0.192017 4.0474 0.185966 4.11001C0.179916 4.17261 0.17991 4.24117 0.17991 4.30675C0.141339 5.12057 0.38102 5.92359 0.860569 6.58723C0.997693 6.77539 1.1494 6.95279 1.31434 7.11785C1.37182 7.17449 1.4172 7.21622 1.44745 7.24603C1.02225 6.91618 0.673531 6.50057 0.424661 6.02704C0.175789 5.55353 0.0325206 5.03305 0.00445573 4.50052C-0.0206848 3.98442 0.0607567 3.46866 0.243851 2.98448C0.426945 2.50031 0.707881 2.0578 1.06964 1.68376C1.43139 1.30973 1.86643 1.01195 2.34841 0.808472C2.83039 0.604995 3.34926 0.500051 3.87361 0.5H16.6912Z" fill="white"/>
</g>
<g style="mix-blend-mode:multiply" opacity="0.3">
<path d="M16.2586 8.12848V13.5748L16.0408 13.7894L16.0287 13.3423C16.0045 12.4748 15.9924 11.6043 15.9773 10.7369C15.9621 9.96478 15.9652 9.19568 15.9591 8.4236C15.0939 8.42658 14.2318 8.41764 13.3666 8.41466C12.4409 8.40273 11.5152 8.39081 10.5895 8.36994L10.8345 8.12848H16.2586Z" fill="black"/>
</g>
<g style="mix-blend-mode:screen" opacity="0.4">
<path d="M16.5611 7.83629L16.5581 8.12843C16.552 8.99889 16.5551 9.86636 16.5369 10.7368C16.5248 11.6043 16.5127 12.4747 16.4885 13.3422L16.4492 14.6479L16.4008 15.9506C16.3524 16.8181 16.3221 17.6885 16.2586 18.556V8.12843H4.69043C5.65545 8.05987 6.61745 8.02708 7.58247 7.97938C8.54749 7.94063 9.50949 7.91082 10.4745 7.88995C11.4395 7.86908 12.4015 7.85716 13.3666 7.84225C14.3316 7.83927 15.2936 7.82735 16.2586 7.83331L16.5611 7.83629Z" fill="white"/>
</g>
</g>
<defs>
<linearGradient id="paint0_linear_73_1253" x1="1.57459" y1="22.5382" x2="15.7264" y2="8.47068" gradientUnits="userSpaceOnUse">
<stop stop-color="#008000"/>
<stop offset="1" stop-color="#003D29"/>
</linearGradient>
<linearGradient id="paint1_linear_73_1253" x1="12" y1="0.822" x2="12" y2="22.833" gradientUnits="userSpaceOnUse">
<stop stop-color="#008000"/>
<stop offset="1" stop-color="#013D28"/>
</linearGradient>
</defs>
</svg>
