<svg width="166" height="44" viewBox="0 0 166 44" fill="none" xmlns="http://www.w3.org/2000/svg">
<mask id="mask0_72_1206" style="mask-type:luminance" maskUnits="userSpaceOnUse" x="10" y="10" width="24" height="24">
<path d="M34 10.5H10V33.5H34V10.5Z" fill="white"/>
</mask>
<g mask="url(#mask0_72_1206)">
<path d="M26.2585 18.1285V23.5748L26.0406 23.7894L25.0424 24.7732C25.0399 24.7758 25.0379 24.7788 25.0363 24.7821L17.4099 32.2942C16.8478 32.8454 16.128 33.214 15.3471 33.3504C14.5663 33.4868 13.7618 33.3846 13.0416 33.0574C13.035 33.0557 13.0288 33.0526 13.0234 33.0484C13.0219 33.0467 13.0197 33.0457 13.0174 33.0455C12.6142 32.86 12.2476 32.6057 11.9344 32.2942C11.8146 32.1769 11.7034 32.0514 11.6016 31.9186C11.5992 31.916 11.5971 31.9129 11.5956 31.9097C11.5879 31.9023 11.5808 31.8943 11.5744 31.8858C11.0162 31.1507 10.7454 30.242 10.8115 29.3261C10.8776 28.4103 11.2762 27.5485 11.9344 26.8986L18.741 20.1943C18.7425 20.1911 18.7446 20.1881 18.747 20.1854L19.6788 19.2672L20.8344 18.1285H26.2585Z" fill="url(#paint0_linear_72_1206)"/>
<path d="M33.9999 14.3366V29.6828C34.0001 30.1996 33.8938 30.711 33.6874 31.1861C33.481 31.6611 33.1788 32.09 32.7992 32.4465C32.4196 32.803 31.9704 33.0798 31.4789 33.2602C30.9875 33.4405 30.464 33.5206 29.9402 33.4955C29.0339 33.4366 28.1762 33.0704 27.5128 32.4591C26.8494 31.8478 26.4212 31.029 26.3009 30.1419L26.3018 30.1405L26.3022 30.1389L26.3018 30.1373L26.3009 30.1359H26.2979V30.13C26.2965 30.118 26.2945 30.106 26.2918 30.0942C26.2701 29.9211 26.259 29.7469 26.2586 29.5725V18.1284H13.9825C13.082 18.1277 12.2072 17.832 11.4959 17.2878L11.4928 17.2848C11.4898 17.2848 11.4868 17.2818 11.4837 17.2788C11.4807 17.2758 11.4747 17.2699 11.4686 17.2639C11.4622 17.2572 11.4551 17.2512 11.4474 17.246C11.0223 16.9162 10.6735 16.5006 10.4247 16.027C10.1758 15.5535 10.0325 15.033 10.0045 14.5005C9.97932 13.9844 10.0608 13.4687 10.2439 12.9845C10.4269 12.5003 10.7079 12.0578 11.0696 11.6838C11.4314 11.3097 11.8664 11.012 12.3484 10.8085C12.8304 10.605 13.3493 10.5001 13.8736 10.5H30.1065C30.6179 10.4999 31.1242 10.599 31.5966 10.7918C32.069 10.9846 32.4983 11.2672 32.8599 11.6234C33.2214 11.9797 33.5082 12.4027 33.7038 12.8682C33.8994 13.3338 34 13.8327 33.9999 14.3366Z" fill="url(#paint1_linear_72_1206)"/>
<g style="mix-blend-mode:screen" opacity="0.3">
<g style="mix-blend-mode:screen" opacity="0.3">
<path d="M33.0923 14.3365V14.4588H10.9122V14.42C10.9122 14.4015 10.9122 14.3744 10.9122 14.3404C10.9077 13.9547 10.9809 13.5719 11.1278 13.2144C11.2746 12.8568 11.492 12.5315 11.7675 12.2574C12.0429 11.9833 12.3709 11.7659 12.7323 11.6177C13.0937 11.4695 13.4814 11.3936 13.8729 11.3943H30.1058C30.8976 11.3948 31.6569 11.7049 32.2168 12.2565C32.7768 12.8082 33.0916 13.5563 33.0923 14.3365Z" fill="white"/>
</g>
</g>
<g style="mix-blend-mode:screen" opacity="0.2">
<path d="M23.6054 20.7427L12.5516 31.6354C12.5516 31.6354 12.5425 31.6264 12.5243 31.6055C12.5108 31.5952 12.4986 31.5832 12.488 31.5698C11.9734 31.0143 11.6954 30.2849 11.7117 29.5328C11.7281 28.7808 12.0375 28.0638 12.5758 27.5305L19.4368 20.7725C19.455 20.7517 19.464 20.7427 19.464 20.7427H23.6054Z" fill="white"/>
</g>
<g style="mix-blend-mode:multiply" opacity="0.2">
<path d="M26.259 18.1285V23.5748L26.0412 23.7894L25.0429 24.7732V19.2672H19.6793L20.8349 18.1285H26.259Z" fill="black"/>
</g>
<g style="mix-blend-mode:screen" opacity="0.6">
<path d="M30.1067 11.3943C30.1067 11.3943 29.7769 11.4062 29.2022 11.4241C28.6274 11.436 27.8045 11.4658 26.8183 11.4778C25.8321 11.4897 24.6826 11.5195 23.4514 11.5225C22.2201 11.5255 20.9042 11.5374 19.5883 11.5433C18.2723 11.5374 16.9594 11.5284 15.7251 11.5225C15.108 11.5165 14.512 11.5106 13.9494 11.5016C13.4325 11.4802 12.9194 11.5966 12.464 11.8385C12.0792 12.0477 11.744 12.3352 11.4809 12.6821C11.2784 12.9539 11.1258 13.2586 11.0301 13.5823C10.9701 13.7926 10.9326 14.0084 10.9182 14.2262C10.9155 14.271 10.9139 14.3088 10.913 14.3404C10.9085 13.9547 10.9818 13.5719 11.1286 13.2144C11.2754 12.8568 11.4929 12.5315 11.7683 12.2574C12.0438 11.9833 12.3717 11.7659 12.7332 11.6177C13.0946 11.4695 13.4823 11.3936 13.8737 11.3943H30.1067Z" fill="white"/>
</g>
<g style="mix-blend-mode:screen" opacity="0.6">
<path d="M19.4368 20.7725C19.3824 20.8321 19.2462 20.9782 19.0496 21.1928C18.7803 21.476 18.4052 21.8874 17.9393 22.3644C17.4735 22.8413 16.935 23.4107 16.3451 23.998C15.7552 24.5912 15.126 25.2202 14.4937 25.8492C14.1761 26.1592 13.8554 26.4692 13.5408 26.7763C13.2262 27.0833 12.9116 27.3814 12.6211 27.6736C12.3527 27.9488 12.1411 28.2727 11.998 28.6275C11.8697 28.9506 11.8021 29.294 11.7983 29.641C11.796 29.9356 11.8378 30.2289 11.9223 30.5115C11.9892 30.7314 12.0805 30.9433 12.1946 31.1435C12.2715 31.2715 12.3574 31.394 12.4517 31.5101C12.4777 31.5406 12.5019 31.5724 12.5243 31.6055C12.5108 31.5951 12.4986 31.5831 12.488 31.5697C11.9734 31.0142 11.6954 30.2848 11.7117 29.5328C11.7281 28.7808 12.0375 28.0638 12.5758 27.5305L19.4368 20.7725Z" fill="white"/>
</g>
<g style="mix-blend-mode:screen" opacity="0.6">
<path d="M18.741 20.1942C18.6714 20.2777 18.0876 20.9842 17.1891 21.962C16.7141 22.4866 16.1484 23.0888 15.5343 23.7237C15.2227 24.0397 14.9111 24.3736 14.5814 24.6985C14.2517 25.0235 13.9189 25.3603 13.5831 25.6942C13.2473 26.0221 12.9085 26.35 12.5727 26.6749C12.4093 26.8359 12.243 26.9939 12.0826 27.1489C11.9333 27.2954 11.7967 27.454 11.6742 27.6229C11.4414 27.9461 11.2637 28.3046 11.1479 28.6841C11.045 29.0292 10.988 29.3859 10.9784 29.7454C10.9772 30.053 11.0096 30.3598 11.0753 30.6605C11.1327 30.8955 11.2086 31.1257 11.3021 31.3492C11.3445 31.4416 11.3838 31.5221 11.4171 31.5936C11.4504 31.6652 11.4897 31.7248 11.5169 31.7725C11.5562 31.844 11.5865 31.8917 11.5956 31.9096C11.5879 31.9022 11.5808 31.8943 11.5744 31.8857C11.0162 31.1506 10.7454 30.2419 10.8115 29.326C10.8776 28.4102 11.2762 27.5485 11.9344 26.8985L18.741 20.1942Z" fill="white"/>
</g>
<g style="mix-blend-mode:multiply" opacity="0.3">
<path d="M25.0424 24.773C25.04 24.7757 25.0379 24.7787 25.0364 24.782L17.41 32.2941C16.8478 32.8453 16.128 33.2138 15.3472 33.3502C14.5663 33.4866 13.7618 33.3844 13.0417 33.0572C13.0332 33.054 13.0251 33.05 13.0175 33.0453C13.2256 33.1207 13.4403 33.1776 13.6588 33.2152C14.2209 33.3203 14.7993 33.3071 15.3559 33.1765C15.7175 33.0874 16.0648 32.949 16.3875 32.7651C16.5618 32.6666 16.7268 32.5528 16.8806 32.4253C16.9622 32.3597 17.0288 32.2941 17.1105 32.2226L17.2285 32.1063L17.3404 31.99C17.658 31.6681 17.9787 31.3283 18.3145 30.9944C18.6503 30.6605 18.9921 30.3177 19.334 29.9779C19.6758 29.638 20.0267 29.3041 20.3655 28.9733C20.7043 28.6424 21.0492 28.3264 21.3759 28.0134C22.0354 27.3963 22.6616 26.8239 23.2031 26.344C24.2834 25.3782 25.0424 24.773 25.0424 24.773Z" fill="black"/>
</g>
<g style="mix-blend-mode:multiply" opacity="0.3">
<path d="M26.3011 30.1363H26.298V30.13C26.2997 30.1317 26.3008 30.1339 26.3011 30.1363Z" fill="black"/>
</g>
<g style="mix-blend-mode:multiply" opacity="0.3">
<path d="M33.9999 14.7956V29.6828C34.0001 30.1996 33.8938 30.711 33.6874 31.186C33.481 31.6611 33.1788 32.0899 32.7992 32.4464C32.4196 32.803 31.9704 33.0798 31.4789 33.2601C30.9875 33.4405 30.464 33.5205 29.9402 33.4955C29.0339 33.4366 28.1762 33.0704 27.5128 32.459C26.8494 31.8477 26.4212 31.029 26.3009 30.1418C26.313 30.1866 26.3342 30.267 26.3614 30.3833C26.4342 30.6506 26.5335 30.9102 26.6579 31.1584C26.8472 31.5423 27.1008 31.892 27.4081 32.1928C27.7966 32.5803 28.2663 32.8795 28.7845 33.0692C29.0744 33.1759 29.3777 33.2431 29.686 33.2689L29.9402 33.2868C30.0188 33.2868 30.0975 33.2838 30.1791 33.2808C30.3466 33.2781 30.5135 33.2622 30.6783 33.2332C31.3784 33.1097 32.0275 32.7898 32.5478 32.312C32.8196 32.063 33.0512 31.7745 33.2345 31.4565C33.4154 31.1286 33.5488 30.7774 33.6308 30.4131C33.667 30.2272 33.6893 30.0389 33.6974 29.8497L33.7034 29.6977C33.7065 29.6768 33.7034 29.6023 33.7034 29.5576V29.2505C33.7004 28.8391 33.7004 28.4248 33.6974 28.0134C33.7034 27.1847 33.7065 26.3589 33.7095 25.5481C33.7186 24.7343 33.7276 23.9324 33.7367 23.1603C33.7579 21.6102 33.7881 20.1644 33.8275 18.9243C33.8607 17.6872 33.9152 16.6528 33.9424 15.9314C33.9757 15.207 33.9999 14.7956 33.9999 14.7956Z" fill="black"/>
</g>
<g style="mix-blend-mode:screen" opacity="0.6">
<path d="M26.6912 10.5C26.6912 10.5 26.3402 10.5268 25.7292 10.5566C25.1181 10.5864 24.2408 10.6371 23.1911 10.6699C22.1444 10.7087 20.9192 10.7415 19.6063 10.7623C18.9498 10.7683 18.2722 10.7862 17.5855 10.7862C16.8957 10.7921 16.1969 10.7951 15.4981 10.7981C15.1472 10.7951 14.7963 10.7951 14.4484 10.7921L13.9281 10.7892C13.7587 10.7951 13.6044 10.7981 13.444 10.816C12.8205 10.8841 12.2254 11.11 11.7167 11.4718C11.2354 11.8127 10.8443 12.2626 10.5762 12.7835C10.5113 12.9065 10.4557 13.034 10.4098 13.165C10.3608 13.2894 10.3204 13.4169 10.2888 13.5466C10.2737 13.6122 10.2555 13.6748 10.2404 13.7374L10.2132 13.9252C10.2041 13.9878 10.192 14.0474 10.186 14.11C10.1799 14.1726 10.1799 14.2412 10.1799 14.3068C10.1413 15.1206 10.381 15.9236 10.8606 16.5872C10.9977 16.7754 11.1494 16.9528 11.3143 17.1178C11.3718 17.1745 11.4172 17.2162 11.4474 17.246C11.0223 16.9162 10.6735 16.5006 10.4247 16.027C10.1758 15.5535 10.0325 15.033 10.0045 14.5005C9.97932 13.9844 10.0608 13.4687 10.2439 12.9845C10.4269 12.5003 10.7079 12.0578 11.0696 11.6838C11.4314 11.3097 11.8664 11.012 12.3484 10.8085C12.8304 10.605 13.3493 10.5001 13.8736 10.5H26.6912Z" fill="white"/>
</g>
<g style="mix-blend-mode:multiply" opacity="0.3">
<path d="M26.2586 18.1285V23.5748L26.0408 23.7894L26.0287 23.3423C26.0045 22.4748 25.9924 21.6043 25.9773 20.7369C25.9621 19.9648 25.9652 19.1957 25.9591 18.4236C25.0939 18.4266 24.2318 18.4176 23.3666 18.4147C22.4409 18.4027 21.5152 18.3908 20.5895 18.3699L20.8345 18.1285H26.2586Z" fill="black"/>
</g>
<g style="mix-blend-mode:screen" opacity="0.4">
<path d="M26.5611 17.8363L26.5581 18.1284C26.552 18.9989 26.5551 19.8664 26.5369 20.7368C26.5248 21.6043 26.5127 22.4747 26.4885 23.3422L26.4492 24.6479L26.4008 25.9506C26.3524 26.8181 26.3221 27.6885 26.2586 28.556V18.1284H14.6904C15.6555 18.0599 16.6174 18.0271 17.5825 17.9794C18.5475 17.9406 19.5095 17.9108 20.4745 17.89C21.4395 17.8691 22.4015 17.8572 23.3666 17.8423C24.3316 17.8393 25.2936 17.8273 26.2586 17.8333L26.5611 17.8363Z" fill="white"/>
</g>
</g>
<path d="M51.02 27.9C51.52 27.9 51.94 27.84 52.28 27.72C52.62 27.6 52.89 27.44 53.09 27.24C53.2967 27.04 53.4433 26.8067 53.53 26.54C53.6233 26.2733 53.67 25.99 53.67 25.69C53.67 25.3767 53.62 25.0967 53.52 24.85C53.42 24.5967 53.2633 24.3833 53.05 24.21C52.8367 24.03 52.56 23.8933 52.22 23.8C51.8867 23.7067 51.4833 23.66 51.01 23.66H48.3V27.9H51.02ZM48.3 17.62V21.8H50.44C51.36 21.8 52.0533 21.6333 52.52 21.3C52.9933 20.9667 53.23 20.4367 53.23 19.71C53.23 18.9567 53.0167 18.42 52.59 18.1C52.1633 17.78 51.4967 17.62 50.59 17.62H48.3ZM50.59 15.54C51.5367 15.54 52.3467 15.63 53.02 15.81C53.6933 15.99 54.2433 16.2467 54.67 16.58C55.1033 16.9133 55.42 17.3167 55.62 17.79C55.82 18.2633 55.92 18.7967 55.92 19.39C55.92 19.73 55.87 20.0567 55.77 20.37C55.67 20.6767 55.5133 20.9667 55.3 21.24C55.0933 21.5067 54.8267 21.75 54.5 21.97C54.18 22.19 53.7967 22.3767 53.35 22.53C55.3367 22.9767 56.33 24.05 56.33 25.75C56.33 26.3633 56.2133 26.93 55.98 27.45C55.7467 27.97 55.4067 28.42 54.96 28.8C54.5133 29.1733 53.9633 29.4667 53.31 29.68C52.6567 29.8933 51.91 30 51.07 30H45.61V15.54H50.59ZM60.5188 21.52C60.8388 20.9067 61.2188 20.4267 61.6588 20.08C62.0988 19.7267 62.6188 19.55 63.2188 19.55C63.6921 19.55 64.0721 19.6533 64.3588 19.86L64.1988 21.71C64.1654 21.83 64.1154 21.9167 64.0488 21.97C63.9888 22.0167 63.9054 22.04 63.7988 22.04C63.6988 22.04 63.5488 22.0233 63.3488 21.99C63.1554 21.9567 62.9654 21.94 62.7788 21.94C62.5054 21.94 62.2621 21.98 62.0488 22.06C61.8354 22.14 61.6421 22.2567 61.4688 22.41C61.3021 22.5567 61.1521 22.7367 61.0188 22.95C60.8921 23.1633 60.7721 23.4067 60.6588 23.68V30H58.1888V19.74H59.6388C59.8921 19.74 60.0688 19.7867 60.1688 19.88C60.2688 19.9667 60.3354 20.1267 60.3688 20.36L60.5188 21.52ZM70.933 25.62C70.2196 25.6533 69.6196 25.7167 69.133 25.81C68.6463 25.8967 68.2563 26.01 67.963 26.15C67.6696 26.29 67.4596 26.4533 67.333 26.64C67.2063 26.8267 67.143 27.03 67.143 27.25C67.143 27.6833 67.2696 27.9933 67.523 28.18C67.783 28.3667 68.1196 28.46 68.533 28.46C69.0396 28.46 69.4763 28.37 69.843 28.19C70.2163 28.0033 70.5796 27.7233 70.933 27.35V25.62ZM65.273 21.17C66.453 20.09 67.873 19.55 69.533 19.55C70.133 19.55 70.6696 19.65 71.143 19.85C71.6163 20.0433 72.0163 20.3167 72.343 20.67C72.6696 21.0167 72.9163 21.4333 73.083 21.92C73.2563 22.4067 73.343 22.94 73.343 23.52V30H72.223C71.9896 30 71.8096 29.9667 71.683 29.9C71.5563 29.8267 71.4563 29.6833 71.383 29.47L71.163 28.73C70.903 28.9633 70.6496 29.17 70.403 29.35C70.1563 29.5233 69.8996 29.67 69.633 29.79C69.3663 29.91 69.0796 30 68.773 30.06C68.473 30.1267 68.1396 30.16 67.773 30.16C67.3396 30.16 66.9396 30.1033 66.573 29.99C66.2063 29.87 65.8896 29.6933 65.623 29.46C65.3563 29.2267 65.1496 28.9367 65.003 28.59C64.8563 28.2433 64.783 27.84 64.783 27.38C64.783 27.12 64.8263 26.8633 64.913 26.61C64.9996 26.35 65.1396 26.1033 65.333 25.87C65.533 25.6367 65.7896 25.4167 66.103 25.21C66.4163 25.0033 66.7996 24.8233 67.253 24.67C67.713 24.5167 68.2463 24.3933 68.853 24.3C69.4596 24.2 70.153 24.14 70.933 24.12V23.52C70.933 22.8333 70.7863 22.3267 70.493 22C70.1996 21.6667 69.7763 21.5 69.223 21.5C68.823 21.5 68.4896 21.5467 68.223 21.64C67.963 21.7333 67.733 21.84 67.533 21.96C67.333 22.0733 67.1496 22.1767 66.983 22.27C66.823 22.3633 66.643 22.41 66.443 22.41C66.2696 22.41 66.123 22.3667 66.003 22.28C65.883 22.1867 65.7863 22.08 65.713 21.96L65.273 21.17ZM77.9792 21C78.1859 20.7933 78.4026 20.6033 78.6292 20.43C78.8626 20.25 79.1059 20.1 79.3592 19.98C79.6192 19.8533 79.8959 19.7567 80.1892 19.69C80.4826 19.6167 80.8026 19.58 81.1492 19.58C81.7092 19.58 82.2059 19.6767 82.6392 19.87C83.0726 20.0567 83.4326 20.3233 83.7192 20.67C84.0126 21.01 84.2326 21.42 84.3792 21.9C84.5326 22.3733 84.6092 22.8967 84.6092 23.47V30H82.1392V23.47C82.1392 22.8433 81.9959 22.36 81.7092 22.02C81.4226 21.6733 80.9859 21.5 80.3992 21.5C79.9726 21.5 79.5726 21.5967 79.1992 21.79C78.8259 21.9833 78.4726 22.2467 78.1392 22.58V30H75.6692V19.74H77.1792C77.4992 19.74 77.7092 19.89 77.8092 20.19L77.9792 21ZM93.3983 22.36C93.1183 22.02 92.8116 21.78 92.4783 21.64C92.1516 21.5 91.7983 21.43 91.4183 21.43C91.0449 21.43 90.7083 21.5 90.4083 21.64C90.1083 21.78 89.8516 21.9933 89.6383 22.28C89.4249 22.56 89.2616 22.92 89.1483 23.36C89.0349 23.7933 88.9783 24.3067 88.9783 24.9C88.9783 25.5 89.0249 26.01 89.1183 26.43C89.2183 26.8433 89.3583 27.1833 89.5383 27.45C89.7183 27.71 89.9383 27.9 90.1983 28.02C90.4583 28.1333 90.7483 28.19 91.0683 28.19C91.5816 28.19 92.0183 28.0833 92.3783 27.87C92.7383 27.6567 93.0783 27.3533 93.3983 26.96V22.36ZM95.8683 15.14V30H94.3583C94.0316 30 93.8249 29.85 93.7383 29.55L93.5283 28.56C93.1149 29.0333 92.6383 29.4167 92.0983 29.71C91.5649 30.0033 90.9416 30.15 90.2283 30.15C89.6683 30.15 89.1549 30.0333 88.6883 29.8C88.2216 29.5667 87.8183 29.23 87.4783 28.79C87.1449 28.3433 86.8849 27.7933 86.6983 27.14C86.5183 26.4867 86.4283 25.74 86.4283 24.9C86.4283 24.14 86.5316 23.4333 86.7383 22.78C86.9449 22.1267 87.2416 21.56 87.6283 21.08C88.0149 20.6 88.4783 20.2267 89.0183 19.96C89.5583 19.6867 90.1649 19.55 90.8383 19.55C91.4116 19.55 91.9016 19.64 92.3083 19.82C92.7149 20 93.0783 20.2433 93.3983 20.55V15.14H95.8683ZM117.799 15.54L113.309 30H110.879L107.719 20.12C107.633 19.88 107.553 19.5867 107.479 19.24C107.439 19.4067 107.399 19.5633 107.359 19.71C107.319 19.8567 107.276 19.9933 107.229 20.12L104.039 30H101.599L97.1192 15.54H99.3692C99.6026 15.54 99.7959 15.5967 99.9492 15.71C100.109 15.8167 100.216 15.9633 100.269 16.15L102.729 24.8C102.783 25.0133 102.833 25.2467 102.879 25.5C102.933 25.7467 102.986 26.0067 103.039 26.28C103.093 26 103.149 25.7367 103.209 25.49C103.276 25.2433 103.346 25.0133 103.419 24.8L106.259 16.15C106.313 15.9967 106.416 15.8567 106.569 15.73C106.729 15.6033 106.923 15.54 107.149 15.54H107.939C108.173 15.54 108.363 15.5967 108.509 15.71C108.656 15.8233 108.766 15.97 108.839 16.15L111.669 24.8C111.809 25.2133 111.936 25.69 112.049 26.23C112.136 25.7033 112.233 25.2267 112.339 24.8L114.799 16.15C114.839 15.9833 114.939 15.84 115.099 15.72C115.266 15.6 115.463 15.54 115.689 15.54H117.799ZM123.374 25.62C122.661 25.6533 122.061 25.7167 121.574 25.81C121.088 25.8967 120.698 26.01 120.404 26.15C120.111 26.29 119.901 26.4533 119.774 26.64C119.648 26.8267 119.584 27.03 119.584 27.25C119.584 27.6833 119.711 27.9933 119.964 28.18C120.224 28.3667 120.561 28.46 120.974 28.46C121.481 28.46 121.918 28.37 122.284 28.19C122.658 28.0033 123.021 27.7233 123.374 27.35V25.62ZM117.714 21.17C118.894 20.09 120.314 19.55 121.974 19.55C122.574 19.55 123.111 19.65 123.584 19.85C124.058 20.0433 124.458 20.3167 124.784 20.67C125.111 21.0167 125.358 21.4333 125.524 21.92C125.698 22.4067 125.784 22.94 125.784 23.52V30H124.664C124.431 30 124.251 29.9667 124.124 29.9C123.998 29.8267 123.898 29.6833 123.824 29.47L123.604 28.73C123.344 28.9633 123.091 29.17 122.844 29.35C122.598 29.5233 122.341 29.67 122.074 29.79C121.808 29.91 121.521 30 121.214 30.06C120.914 30.1267 120.581 30.16 120.214 30.16C119.781 30.16 119.381 30.1033 119.014 29.99C118.648 29.87 118.331 29.6933 118.064 29.46C117.798 29.2267 117.591 28.9367 117.444 28.59C117.298 28.2433 117.224 27.84 117.224 27.38C117.224 27.12 117.268 26.8633 117.354 26.61C117.441 26.35 117.581 26.1033 117.774 25.87C117.974 25.6367 118.231 25.4167 118.544 25.21C118.858 25.0033 119.241 24.8233 119.694 24.67C120.154 24.5167 120.688 24.3933 121.294 24.3C121.901 24.2 122.594 24.14 123.374 24.12V23.52C123.374 22.8333 123.228 22.3267 122.934 22C122.641 21.6667 122.218 21.5 121.664 21.5C121.264 21.5 120.931 21.5467 120.664 21.64C120.404 21.7333 120.174 21.84 119.974 21.96C119.774 22.0733 119.591 22.1767 119.424 22.27C119.264 22.3633 119.084 22.41 118.884 22.41C118.711 22.41 118.564 22.3667 118.444 22.28C118.324 22.1867 118.228 22.08 118.154 21.96L117.714 21.17ZM131.394 30.16C130.501 30.16 129.814 29.91 129.334 29.41C128.861 28.9033 128.624 28.2067 128.624 27.32V21.59H127.574C127.441 21.59 127.327 21.5467 127.234 21.46C127.141 21.3733 127.094 21.2433 127.094 21.07V20.09L128.744 19.82L129.264 17.02C129.297 16.8867 129.361 16.7833 129.454 16.71C129.547 16.6367 129.667 16.6 129.814 16.6H131.094V19.83H133.834V21.59H131.094V27.15C131.094 27.47 131.171 27.72 131.324 27.9C131.484 28.08 131.701 28.17 131.974 28.17C132.127 28.17 132.254 28.1533 132.354 28.12C132.461 28.08 132.551 28.04 132.624 28C132.704 27.96 132.774 27.9233 132.834 27.89C132.894 27.85 132.954 27.83 133.014 27.83C133.087 27.83 133.147 27.85 133.194 27.89C133.241 27.9233 133.291 27.9767 133.344 28.05L134.084 29.25C133.724 29.55 133.311 29.7767 132.844 29.93C132.377 30.0833 131.894 30.16 131.394 30.16ZM142.687 21.91C142.614 22.0033 142.541 22.0767 142.467 22.13C142.401 22.1833 142.301 22.21 142.167 22.21C142.041 22.21 141.917 22.1733 141.797 22.1C141.677 22.02 141.534 21.9333 141.367 21.84C141.201 21.74 141.001 21.6533 140.767 21.58C140.541 21.5 140.257 21.46 139.917 21.46C139.484 21.46 139.104 21.54 138.777 21.7C138.451 21.8533 138.177 22.0767 137.957 22.37C137.744 22.6633 137.584 23.02 137.477 23.44C137.371 23.8533 137.317 24.3233 137.317 24.85C137.317 25.3967 137.374 25.8833 137.487 26.31C137.607 26.7367 137.777 27.0967 137.997 27.39C138.217 27.6767 138.484 27.8967 138.797 28.05C139.111 28.1967 139.464 28.27 139.857 28.27C140.251 28.27 140.567 28.2233 140.807 28.13C141.054 28.03 141.261 27.9233 141.427 27.81C141.594 27.69 141.737 27.5833 141.857 27.49C141.984 27.39 142.124 27.34 142.277 27.34C142.477 27.34 142.627 27.4167 142.727 27.57L143.437 28.47C143.164 28.79 142.867 29.06 142.547 29.28C142.227 29.4933 141.894 29.6667 141.547 29.8C141.207 29.9267 140.854 30.0167 140.487 30.07C140.127 30.1233 139.767 30.15 139.407 30.15C138.774 30.15 138.177 30.0333 137.617 29.8C137.057 29.56 136.567 29.2133 136.147 28.76C135.727 28.3067 135.394 27.7533 135.147 27.1C134.907 26.44 134.787 25.69 134.787 24.85C134.787 24.0967 134.894 23.4 135.107 22.76C135.327 22.1133 135.647 21.5567 136.067 21.09C136.487 20.6167 137.007 20.2467 137.627 19.98C138.247 19.7133 138.961 19.58 139.767 19.58C140.534 19.58 141.204 19.7033 141.777 19.95C142.357 20.1967 142.877 20.55 143.337 21.01L142.687 21.91ZM147.456 20.84C147.856 20.4667 148.296 20.1633 148.776 19.93C149.256 19.6967 149.819 19.58 150.466 19.58C151.026 19.58 151.522 19.6767 151.956 19.87C152.389 20.0567 152.749 20.3233 153.036 20.67C153.329 21.01 153.549 21.42 153.696 21.9C153.849 22.3733 153.926 22.8967 153.926 23.47V30H151.456V23.47C151.456 22.8433 151.312 22.36 151.026 22.02C150.739 21.6733 150.302 21.5 149.716 21.5C149.289 21.5 148.889 21.5967 148.516 21.79C148.142 21.9833 147.789 22.2467 147.456 22.58V30H144.986V15.14H147.456V20.84Z" fill="#08AC0A"/>
<defs>
<linearGradient id="paint0_linear_72_1206" x1="11.5746" y1="32.5382" x2="25.7264" y2="18.4707" gradientUnits="userSpaceOnUse">
<stop stop-color="#008000"/>
<stop offset="1" stop-color="#003D29"/>
</linearGradient>
<linearGradient id="paint1_linear_72_1206" x1="22" y1="10.822" x2="22" y2="32.833" gradientUnits="userSpaceOnUse">
<stop stop-color="#008000"/>
<stop offset="1" stop-color="#013D28"/>
</linearGradient>
</defs>
</svg>
